M48
; DRILL file {KiCad 5.1.9+dfsg1-1+deb11u1} date Mon Jan 16 13:11:22 2023
; FORMAT={-:-/ absolute / inch / decimal}
; #@! TF.CreationDate,2023-01-16T13:11:22+01:00
; #@! TF.GenerationSoftware,Kicad,Pcbnew,5.1.9+dfsg1-1+deb11u1
; #@! TF.FileFunction,Plated,1,2,PTH
FMAT,2
INCH
T1C0.0276
T2C0.0295
T3C0.0315
T4C0.0394
%
G90
G05
T1
X1.85Y-1.8
X1.85Y-2.1
X1.85Y-2.35
X1.85Y-2.65
X2.0Y-1.8
X2.0Y-2.1
X2.1Y-2.2
X2.1Y-2.5
X2.25Y-2.65
X2.25Y-2.95
X2.5Y-2.2
X2.5Y-2.5
X2.75Y-1.8
X2.75Y-2.1
X2.75Y-2.65
X2.75Y-2.95
X3.0Y-2.65
X3.0Y-2.95
X3.25Y-2.2
X3.25Y-2.5
X3.45Y-1.8
X3.45Y-2.1
X3.45Y-2.65
X3.45Y-2.95
X3.55Y-1.8
X3.85Y-1.8
X3.85Y-2.65
X3.85Y-2.95
X3.95Y-1.8
X3.95Y-2.1
X4.1Y-1.8
X4.1Y-2.1
X4.3Y-2.65
X4.3Y-2.95
X4.45Y-2.65
X4.45Y-2.95
X5.0Y-2.95
X5.3Y-2.95
T2
X2.25Y-2.4
X2.25Y-2.45
X2.25Y-2.5
X2.75Y-2.4
X2.75Y-2.45
X2.75Y-2.5
X3.45Y-2.4
X3.45Y-2.45
X3.45Y-2.5
X3.95Y-2.4
X3.95Y-2.45
X3.95Y-2.5
T3
X1.6016Y-2.1
X1.6016Y-2.35
X1.7Y-2.1
X1.7Y-2.35
X2.0016Y-2.65
X2.05Y-2.85
X2.05Y-2.9484
X2.1Y-2.65
X2.2516Y-2.2
X2.35Y-2.2
X2.6516Y-2.2
X2.75Y-2.2
X3.0Y-1.8016
X3.0Y-1.9
X3.0016Y-2.5
X3.1Y-2.5
X3.2Y-1.8
X3.2Y-1.8984
X3.6Y-2.65
X3.6516Y-2.1
X3.6984Y-2.65
X3.75Y-2.1
X4.3Y-1.8
X4.3Y-1.9
X4.3Y-2.0
X4.3Y-2.1
X4.3Y-2.2
X4.3Y-2.3
X4.3Y-2.4
X4.3Y-2.5
X4.6Y-1.8
X4.6Y-1.9
X4.6Y-2.0
X4.6Y-2.1
X4.6Y-2.2
X4.6Y-2.3
X4.6Y-2.4
X4.6Y-2.5
X4.75Y-2.95
X4.8Y-2.45
X4.8Y-2.55
X4.8Y-2.65
X4.8Y-2.75
X4.8484Y-2.95
X4.9Y-1.8
X4.9Y-1.8984
X4.95Y-2.15
X5.0484Y-2.15
X5.1Y-2.45
X5.1Y-2.55
X5.1Y-2.65
X5.1Y-2.75
T4
X1.75Y-2.95
X1.85Y-2.95
X4.05Y-2.75
X4.05Y-2.85
X4.05Y-2.95
X5.3Y-2.1
X5.3Y-2.2
X5.3Y-2.4
X5.3Y-2.5
X5.3Y-2.7
X5.3Y-2.8
T0
M30
