%TF.GenerationSoftware,KiCad,Pcbnew,5.1.9+dfsg1-1+deb11u1*%
%TF.CreationDate,2023-01-16T13:11:19+01:00*%
%TF.ProjectId,bat-detector,6261742d-6465-4746-9563-746f722e6b69,rev?*%
%TF.SameCoordinates,Original*%
%TF.FileFunction,Soldermask,Bot*%
%TF.FilePolarity,Negative*%
%FSLAX46Y46*%
G04 Gerber Fmt 4.6, Leading zero omitted, Abs format (unit mm)*
G04 Created by KiCad (PCBNEW 5.1.9+dfsg1-1+deb11u1) date 2023-01-16 13:11:19*
%MOMM*%
%LPD*%
G01*
G04 APERTURE LIST*
%ADD10C,1.700000*%
%ADD11R,1.700000X1.700000*%
%ADD12C,1.600000*%
%ADD13R,1.600000X1.600000*%
%ADD14O,1.700000X1.700000*%
%ADD15R,1.500000X1.050000*%
%ADD16O,1.500000X1.050000*%
%ADD17C,1.400000*%
%ADD18O,1.400000X1.400000*%
%ADD19R,2.400000X1.600000*%
%ADD20O,2.400000X1.600000*%
G04 APERTURE END LIST*
D10*
%TO.C,BT1*%
X134620000Y-68580000D03*
D11*
X134620000Y-71120000D03*
%TD*%
D12*
%TO.C,C1*%
X76200000Y-45760000D03*
X76200000Y-48260000D03*
%TD*%
D13*
%TO.C,C2*%
X81280000Y-45720000D03*
D12*
X81280000Y-48220000D03*
%TD*%
%TO.C,C3*%
X40680000Y-53340000D03*
X43180000Y-53340000D03*
%TD*%
%TO.C,C4*%
X59690000Y-55880000D03*
X57190000Y-55880000D03*
%TD*%
%TO.C,C5*%
X67350000Y-55880000D03*
X69850000Y-55880000D03*
%TD*%
%TO.C,C6*%
X95250000Y-53340000D03*
X92750000Y-53340000D03*
%TD*%
D13*
%TO.C,C7*%
X43180000Y-59690000D03*
D12*
X40680000Y-59690000D03*
%TD*%
%TO.C,C8*%
X53340000Y-67310000D03*
X50840000Y-67310000D03*
%TD*%
%TO.C,C9*%
X76240000Y-63500000D03*
X78740000Y-63500000D03*
%TD*%
%TO.C,C10*%
X91440000Y-67310000D03*
X93940000Y-67310000D03*
%TD*%
%TO.C,C11*%
X52070000Y-72390000D03*
X52070000Y-74890000D03*
%TD*%
%TO.C,C12*%
X124460000Y-48220000D03*
D13*
X124460000Y-45720000D03*
%TD*%
%TO.C,C13*%
X125730000Y-54610000D03*
D12*
X128230000Y-54610000D03*
%TD*%
%TO.C,C14*%
X123150000Y-74930000D03*
X120650000Y-74930000D03*
%TD*%
D10*
%TO.C,LS1*%
X134620000Y-53340000D03*
D14*
X134620000Y-55880000D03*
%TD*%
%TO.C,MIC*%
X46990000Y-74930000D03*
D11*
X44450000Y-74930000D03*
%TD*%
D15*
%TO.C,Q1*%
X57150000Y-60960000D03*
D16*
X57150000Y-63500000D03*
X57150000Y-62230000D03*
%TD*%
%TO.C,Q2*%
X69850000Y-62230000D03*
X69850000Y-63500000D03*
D15*
X69850000Y-60960000D03*
%TD*%
D16*
%TO.C,Q3*%
X87630000Y-62230000D03*
X87630000Y-63500000D03*
D15*
X87630000Y-60960000D03*
%TD*%
%TO.C,Q4*%
X100330000Y-60960000D03*
D16*
X100330000Y-63500000D03*
X100330000Y-62230000D03*
%TD*%
D17*
%TO.C,R1*%
X97790000Y-45720000D03*
D18*
X90170000Y-45720000D03*
%TD*%
%TO.C,R2*%
X46990000Y-53340000D03*
D17*
X46990000Y-45720000D03*
%TD*%
D18*
%TO.C,R3*%
X50800000Y-53340000D03*
D17*
X50800000Y-45720000D03*
%TD*%
D18*
%TO.C,R4*%
X69850000Y-53340000D03*
D17*
X69850000Y-45720000D03*
%TD*%
D18*
%TO.C,R5*%
X87630000Y-53340000D03*
D17*
X87630000Y-45720000D03*
%TD*%
%TO.C,R6*%
X100330000Y-45720000D03*
D18*
X100330000Y-53340000D03*
%TD*%
D17*
%TO.C,R7*%
X104140000Y-45720000D03*
D18*
X104140000Y-53340000D03*
%TD*%
%TO.C,R8*%
X53340000Y-63500000D03*
D17*
X53340000Y-55880000D03*
%TD*%
D18*
%TO.C,R9*%
X82550000Y-63500000D03*
D17*
X82550000Y-55880000D03*
%TD*%
%TO.C,R10*%
X46990000Y-59690000D03*
D18*
X46990000Y-67310000D03*
%TD*%
%TO.C,R11*%
X97790000Y-74930000D03*
D17*
X97790000Y-67310000D03*
%TD*%
D18*
%TO.C,R12*%
X109220000Y-74930000D03*
D17*
X109220000Y-67310000D03*
%TD*%
%TO.C,R13*%
X63500000Y-55880000D03*
D18*
X63500000Y-63500000D03*
%TD*%
D17*
%TO.C,R14*%
X57150000Y-67310000D03*
D18*
X57150000Y-74930000D03*
%TD*%
D17*
%TO.C,R15*%
X69850000Y-67310000D03*
D18*
X69850000Y-74930000D03*
%TD*%
%TO.C,R16*%
X76200000Y-74930000D03*
D17*
X76200000Y-67310000D03*
%TD*%
%TO.C,R17*%
X87630000Y-67310000D03*
D18*
X87630000Y-74930000D03*
%TD*%
D17*
%TO.C,R18*%
X113030000Y-67310000D03*
D18*
X113030000Y-74930000D03*
%TD*%
%TO.C,R19*%
X134620000Y-74930000D03*
D17*
X127000000Y-74930000D03*
%TD*%
D10*
%TO.C,RV1*%
X102870000Y-69850000D03*
D14*
X102870000Y-72390000D03*
D11*
X102870000Y-74930000D03*
%TD*%
D14*
%TO.C,SW1*%
X134620000Y-63500000D03*
D10*
X134620000Y-60960000D03*
%TD*%
D19*
%TO.C,U1*%
X109220000Y-45720000D03*
D20*
X116840000Y-63500000D03*
X109220000Y-48260000D03*
X116840000Y-60960000D03*
X109220000Y-50800000D03*
X116840000Y-58420000D03*
X109220000Y-53340000D03*
X116840000Y-55880000D03*
X109220000Y-55880000D03*
X116840000Y-53340000D03*
X109220000Y-58420000D03*
X116840000Y-50800000D03*
X109220000Y-60960000D03*
X116840000Y-48260000D03*
X109220000Y-63500000D03*
X116840000Y-45720000D03*
%TD*%
D19*
%TO.C,U2*%
X121920000Y-62230000D03*
D20*
X129540000Y-69850000D03*
X121920000Y-64770000D03*
X129540000Y-67310000D03*
X121920000Y-67310000D03*
X129540000Y-64770000D03*
X121920000Y-69850000D03*
X129540000Y-62230000D03*
%TD*%
M02*
